<svg width="200" height="200" viewBox="0 0 200 200" fill="none" xmlns="http://www.w3.org/2000/svg">
<rect width="200" height="200" fill="white"/>
<g clip-path="url(#clip0_40_7)">
<path d="M24.5011 94.7796C26.2645 93.4394 28.4391 92.7608 30.6483 92.8612C34.0252 92.8612 36.569 93.8281 38.4251 95.8203L38.8294 96.2719L43.6021 94.5609L42.8271 93.5443C40.0067 89.8593 35.9001 87.9966 30.6449 88C27.3296 87.8996 24.0755 88.9121 21.3974 90.8772C20.0396 91.8665 18.9336 93.1638 18.1694 94.6635C17.4052 96.1632 17.0044 97.8229 16.9996 99.5075C16.9947 101.192 17.386 102.854 18.1417 104.358C18.8973 105.862 19.9959 107.166 21.348 108.163C24.0539 110.117 27.3291 111.115 30.6603 111C32.9875 111.05 35.3022 110.646 37.4757 109.809C39.4939 108.955 41.2771 107.625 42.6741 105.931L43.409 105.063L38.941 102.592L38.4499 103.129C36.6084 105.159 34.1001 106.139 30.8474 106.141C28.158 106.141 26.0279 105.513 24.4871 104.263C23.7875 103.688 23.224 102.964 22.8375 102.143C22.451 101.322 22.2512 100.426 22.2526 99.5178C22.2539 98.61 22.4564 97.7138 22.8453 96.8943C23.2342 96.0748 23.7998 95.3524 24.5011 94.7796ZM66.5205 88.6287L66.5258 96.7301L52.4788 96.7396L52.4735 88.6381L47.3192 88.6414L47.3332 110.435L52.4875 110.432L52.4815 101.585L66.5292 101.576L66.5345 110.422L71.6928 110.419L71.6788 88.6253H70.7433L66.5205 88.6287ZM81.8343 101.566L94.1187 101.558L94.1154 96.712L81.831 96.7201V93.4638L98.5647 93.4524L98.5614 88.6079H97.6333L76.6814 88.622L76.6954 110.416L98.5768 110.401L98.5734 105.559L81.839 105.57L81.8343 101.566ZM108.805 101.548L121.084 101.54L121.081 96.6939L108.802 96.702V93.4457L125.528 93.4349L125.525 88.5897H124.597L103.647 88.6045L103.661 110.398L125.534 110.383L125.531 105.541L108.805 105.552V101.548ZM153.486 88.5716H150.978L145.863 88.575C145.863 88.575 138.069 95.1902 135.791 97.1267L135.786 88.5817L130.648 88.5851L130.662 110.379L135.8 110.375L135.796 103.854C136.288 103.424 139.061 101.063 139.947 100.298C141.02 101.328 150.509 110.381 150.509 110.381L157.353 110.377C157.353 110.377 144.893 98.3418 143.577 97.0797C144.869 95.9759 153.486 88.5683 153.486 88.5683V88.5716ZM180.074 88.5542H175.61C175.61 88.5542 170.125 95.7646 168.955 97.3233C167.769 95.7747 162.212 88.5629 162.212 88.5629L155.742 88.5669C155.742 88.5669 165.922 101.394 166.319 101.882L166.324 110.354H171.469L171.466 101.874C171.852 101.379 182.001 88.5528 182.001 88.5528L180.074 88.5542Z" fill="#A9C5A5"/>
</g>
<defs>
<clipPath id="clip0_40_7">
<rect width="165" height="23" fill="white" transform="translate(17 88)"/>
</clipPath>
</defs>
</svg>
