<svg width="200" height="200" viewBox="0 0 200 200" fill="none" xmlns="http://www.w3.org/2000/svg">
<g clip-path="url(#clip0_40_11)">
<rect width="200" height="200" fill="white"/>
<path d="M50.4487 96.345H39.0421V101.214H45.4901C45.0816 102.631 44.2335 103.877 43.0719 104.766C41.9103 105.656 40.4971 106.141 39.0421 106.15C37.8502 106.15 36.6768 105.851 35.6257 105.281C34.5745 104.711 33.6781 103.886 33.016 102.88C32.3538 101.874 31.9463 100.718 31.8294 99.5141C31.7125 98.3101 31.89 97.0955 32.346 95.9777C32.802 94.8599 33.5225 93.8736 34.4438 93.1059C35.365 92.3383 36.4586 91.8131 37.6276 91.5769C38.7965 91.3407 40.0048 91.4007 41.1454 91.7516C42.2861 92.1025 43.3238 92.7336 44.1668 93.5888L47.555 90.1456C46.1541 88.7248 44.4298 87.6766 42.5345 87.0938C40.6393 86.511 38.6317 86.4116 36.6896 86.8044C34.7474 87.1972 32.9307 88.07 31.4002 89.3457C29.8698 90.6213 28.6729 92.2604 27.9155 94.1177C27.1581 95.975 26.8637 97.9932 27.0583 99.9935C27.2528 101.994 27.9302 103.915 29.0307 105.586C30.1312 107.257 31.6207 108.627 33.3674 109.574C35.114 110.521 37.0639 111.017 39.0442 111.017C40.6049 111.009 42.1481 110.684 43.5833 110.062C45.0185 109.439 46.3168 108.532 47.4016 107.393C48.4864 106.254 49.336 104.907 49.9003 103.43C50.4647 101.953 50.7324 100.376 50.6878 98.7927C50.688 97.9708 50.6079 97.1509 50.4487 96.345Z" fill="#007BC1"/>
<path d="M124.738 98.7989C124.737 95.5575 123.468 92.4491 121.21 90.1572C118.951 87.8653 115.889 86.5776 112.695 86.577H106.268V111.033H112.695C114.278 111.033 115.844 110.716 117.306 110.101C118.767 109.485 120.095 108.584 121.213 107.448C122.332 106.312 123.219 104.963 123.823 103.479C124.428 101.995 124.739 100.405 124.738 98.7989ZM112.695 106.148H111.086V91.4641H112.695C113.655 91.4478 114.609 91.6256 115.501 91.9873C116.392 92.3489 117.204 92.8872 117.889 93.5706C118.574 94.2539 119.117 95.0688 119.488 95.9677C119.859 96.8666 120.051 97.8315 120.051 98.8061C120.051 99.7808 119.859 100.746 119.488 101.645C119.117 102.543 118.574 103.358 117.889 104.042C117.204 104.725 116.392 105.263 115.501 105.625C114.609 105.986 113.655 106.164 112.695 106.148Z" fill="#007BC1"/>
<path d="M69.9589 91.4641V86.9801H57.9238V110.634H62.7427V100.434H67.5007V95.9542H62.7427V91.4723L69.9589 91.4641Z" fill="#007BC1"/>
<path d="M93.2281 86.5729C91.149 86.5694 89.1071 87.132 87.3151 88.2019C85.5232 87.1318 83.481 86.5693 81.4019 86.5729C78.2349 86.6146 75.2114 87.9209 72.9863 90.209C70.7609 92.4971 69.5132 95.5828 69.5132 98.7979C69.5132 102.013 70.7609 105.099 72.9863 107.387C75.2114 109.675 78.2349 110.981 81.4019 111.023C83.481 111.025 85.5229 110.462 87.3151 109.392C89.1074 110.462 91.149 111.025 93.2281 111.023C96.3951 110.981 99.4186 109.675 101.644 107.387C103.869 105.099 105.117 102.013 105.117 98.7979C105.117 95.5828 103.869 92.4971 101.644 90.209C99.4186 87.9209 96.3951 86.6146 93.2281 86.5729ZM93.2281 106.144C92.5075 106.145 91.7913 106.034 91.1044 105.813C89.6484 105.333 88.3799 104.396 87.4822 103.137C86.5842 101.879 86.1035 100.363 86.1093 98.8092C86.1142 97.6924 85.7379 96.6082 85.0445 95.741C84.3512 94.8737 83.3836 94.2768 82.3057 94.0516C81.5296 95.9616 81.2342 98.0377 81.4465 100.092C81.6588 102.147 82.372 104.116 83.5216 105.821C82.8366 106.04 82.1224 106.151 81.4041 106.15C79.5067 106.118 77.6976 105.33 76.3671 103.957C75.0367 102.583 74.2908 100.734 74.2908 98.8082C74.2908 96.882 75.0367 95.0329 76.3671 93.6595C77.6976 92.2861 79.5067 91.4984 81.4041 91.4662C82.1203 91.465 82.8326 91.576 83.5155 91.7953C85.0748 92.2986 86.4162 93.3304 87.3151 94.7181C87.7629 95.4048 88.0934 96.1635 88.2916 96.9621C88.295 96.9715 88.295 96.9816 88.2916 96.9909C88.3182 97.0917 88.3384 97.1966 88.3585 97.2912C88.3616 97.3122 88.3661 97.3329 88.3729 97.353C88.4132 97.571 88.4477 97.7952 88.4721 98.0255C88.4721 98.0523 88.4721 98.0852 88.4721 98.1099C88.4721 98.1983 88.4822 98.2806 88.4923 98.369C88.4923 98.4019 88.4923 98.4349 88.4923 98.4657C88.4923 98.5789 88.4923 98.692 88.4923 98.8071C88.4889 99.9221 88.8637 101.004 89.5537 101.872C90.244 102.739 91.2073 103.339 92.2818 103.571C93.0619 101.661 93.3606 99.5846 93.1508 97.5285C92.9409 95.4724 92.2293 93.5019 91.0799 91.7953C91.765 91.5753 92.4791 91.4636 93.1978 91.4641C95.0952 91.4963 96.904 92.2841 98.2347 93.6574C99.5652 95.0308 100.311 96.8799 100.311 98.8061C100.311 100.732 99.5652 102.581 98.2347 103.955C96.904 105.328 95.0952 106.116 93.1978 106.148L93.2281 106.144Z" fill="#007BC1"/>
<path d="M153.206 83.8097H173.001C173.283 83.8097 173.554 83.6976 173.754 83.4981C173.954 83.2985 174.066 83.0278 174.067 82.7452V78.9156C174.067 78.7752 174.04 78.6363 173.987 78.5066C173.933 78.3769 173.855 78.259 173.756 78.1598C173.657 78.0606 173.539 77.982 173.41 77.9285C173.28 77.875 173.141 77.8476 173.001 77.848H153.206C149.1 77.8472 145.085 79.06 141.665 81.3343C138.244 83.6086 135.57 86.8432 133.977 90.6329C132.384 94.4227 131.944 98.5989 132.711 102.638C133.478 106.678 135.418 110.401 138.288 113.34C141.159 116.281 144.832 118.306 148.847 119.165C152.862 120.024 157.041 119.676 160.86 118.166C164.679 116.657 167.968 114.052 170.316 110.678C172.663 107.305 173.963 103.312 174.055 99.2016C174.058 99.1589 174.058 99.116 174.055 99.0732V90.8449C174.055 90.7049 174.027 90.5662 173.973 90.4369C173.92 90.3076 173.841 90.19 173.743 90.0912C173.643 89.9923 173.526 89.914 173.396 89.8607C173.267 89.8074 173.129 89.7801 172.989 89.7805H153.193C151.584 89.7795 150.003 90.2139 148.619 91.0381C147.235 91.8622 146.099 93.0454 145.331 94.4626C144.562 95.8799 144.191 97.4785 144.255 99.0898C144.319 100.701 144.816 102.265 145.694 103.617C146.573 104.968 147.799 106.057 149.244 106.769C150.689 107.48 152.299 107.787 153.905 107.658C155.509 107.529 157.05 106.968 158.363 106.034C159.676 105.101 160.713 103.83 161.364 102.355C161.4 102.286 161.42 102.21 161.422 102.132C161.422 102.079 161.412 102.026 161.392 101.976C161.371 101.927 161.342 101.882 161.304 101.844C161.266 101.807 161.221 101.777 161.171 101.757C161.122 101.737 161.069 101.727 161.016 101.728H153.197C152.421 101.703 151.686 101.378 151.146 100.82C150.607 100.261 150.305 99.5151 150.305 98.7383C150.305 97.9614 150.607 97.2151 151.146 96.6571C151.686 96.099 152.421 95.7731 153.197 95.7482H167.787C168.403 98.7647 168.072 101.898 166.839 104.719C165.606 107.539 163.532 109.908 160.902 111.502C158.271 113.095 155.212 113.834 152.146 113.618C149.079 113.401 146.154 112.24 143.773 110.293C141.391 108.345 139.669 105.708 138.844 102.742C138.019 99.7764 138.13 96.6274 139.162 93.7273C140.194 90.8272 142.098 88.318 144.61 86.544C147.123 84.77 150.122 83.8181 153.197 83.8188L153.206 83.8097Z" fill="url(#paint0_linear_40_11)"/>
</g>
<defs>
<linearGradient id="paint0_linear_40_11" x1="172.899" y1="79.6027" x2="138.935" y2="112.521" gradientUnits="userSpaceOnUse">
<stop stop-color="#1AAADB"/>
<stop offset="1" stop-color="#007BC1"/>
</linearGradient>
<clipPath id="clip0_40_11">
<rect width="200" height="200" fill="white"/>
</clipPath>
</defs>
</svg>
