<svg width="100" height="100" viewBox="0 0 100 100" fill="none" xmlns="http://www.w3.org/2000/svg">
<g id="miro">
<g id="miro_2">
<path id="Vector" d="M21.6632 -0.000854492H78.3368C90.293 -0.000854492 100 9.70616 100 21.6624V78.3359C100 90.2921 90.293 99.9991 78.3368 99.9991H21.6632C9.70702 99.9991 0 90.2921 0 78.3359V21.6624C0 9.70616 9.70702 -0.000854492 21.6632 -0.000854492Z" fill="#FFD02F"/>
<path id="Vector_2" d="M69.488 12.488H58.5084L67.6531 28.5579L47.5288 12.488H36.5492L46.6114 32.1388L25.5697 12.488H14.5901L25.5697 37.4954L14.5901 87.5102H25.5697L46.6114 33.9145L36.5492 87.5102H47.5288L67.6531 30.3631L58.5084 87.5102H69.488L89.6123 24.9769L69.488 12.488Z" fill="#050038"/>
</g>
</g>
</svg>
