<svg width="100" height="100" viewBox="0 0 100 100" fill="none" xmlns="http://www.w3.org/2000/svg">
<g id="openai">
<g id="openai_2">
<path id="Vector" d="M93.0601 40.9366C94.3101 37.4991 94.6226 34.0616 94.3101 30.6241C93.9976 27.1866 92.7476 23.7491 91.1851 20.6241C88.3726 15.9366 84.3101 12.1866 79.6226 9.99915C74.6226 7.81165 69.3101 7.18665 63.9976 8.43665C61.4976 5.93665 58.6851 3.74915 55.5601 2.18665C52.4351 0.624145 48.6851 -0.000854492 45.2476 -0.000854492C39.9351 -0.000854492 34.6226 1.56165 30.2476 4.68665C25.8726 7.81165 22.7476 12.1866 21.1851 17.1866C17.4351 18.1241 14.3101 19.6866 11.1851 21.5616C8.37257 23.7491 6.18507 26.5616 4.31007 29.3741C1.49757 34.0616 0.560072 39.3741 1.18507 44.6866C1.81007 49.9991 3.99757 54.9991 7.43507 59.0616C6.18507 62.4991 5.87257 65.9366 6.18507 69.3741C6.49757 72.8116 7.74757 76.2491 9.31007 79.3741C12.1226 84.0616 16.1851 87.8116 20.8726 89.9991C25.8726 92.1866 31.1851 92.8116 36.4976 91.5616C38.9976 94.0616 41.8101 96.2491 44.9351 97.8116C48.0601 99.3741 51.8101 99.9991 55.2476 99.9991C60.5601 99.9991 65.8726 98.4366 70.2476 95.3116C74.6226 92.1866 77.7476 87.8116 79.3101 82.8116C82.7476 82.1866 86.1851 80.6241 88.9976 78.4366C91.8101 76.2491 94.3101 73.7491 95.8726 70.6241C98.6851 65.9366 99.6226 60.6241 98.9976 55.3116C98.3726 49.9991 96.4976 44.9991 93.0601 40.9366ZM55.5601 93.4366C50.5601 93.4366 46.8101 91.8741 43.3726 89.0616C43.3726 89.0616 43.6851 88.7491 43.9976 88.7491L63.9976 77.1866C64.6226 76.8741 64.9351 76.5616 65.2476 75.9366C65.5601 75.3116 65.5601 74.9991 65.5601 74.3741V46.2491L73.9976 51.2491V74.3741C74.3101 85.3116 65.5601 93.4366 55.5601 93.4366ZM15.2476 76.2491C13.0601 72.4991 12.1226 68.1241 13.0601 63.7491C13.0601 63.7491 13.3726 64.0616 13.6851 64.0616L33.6851 75.6241C34.3101 75.9366 34.6226 75.9366 35.2476 75.9366C35.8726 75.9366 36.4976 75.9366 36.8101 75.6241L61.1851 61.5616V71.2491L40.8726 83.1241C36.4976 85.6241 31.4976 86.2491 26.8101 84.9991C21.8101 83.7491 17.7476 80.6241 15.2476 76.2491ZM9.93507 32.8116C12.1226 29.0616 15.5601 26.2491 19.6226 24.6866V25.3116V48.4366C19.6226 49.0616 19.6226 49.6866 19.9351 49.9991C20.2476 50.6241 20.5601 50.9366 21.1851 51.2491L45.5601 65.3116L37.1226 70.3116L17.1226 58.7491C12.7476 56.2491 9.62257 52.1866 8.37257 47.4991C7.12257 42.8116 7.43507 37.1866 9.93507 32.8116ZM78.9976 48.7491L54.6226 34.6866L63.0601 29.6866L83.0601 41.2491C86.1851 43.1241 88.6851 45.6241 90.2476 48.7491C91.8101 51.8741 92.7476 55.3116 92.4351 59.0616C92.1226 62.4991 90.8726 65.9366 88.6851 68.7491C86.4976 71.5616 83.6851 73.7491 80.2476 74.9991V51.2491C80.2476 50.6241 80.2476 49.9991 79.9351 49.6866C79.9351 49.6866 79.6226 49.0616 78.9976 48.7491ZM87.4351 36.2491C87.4351 36.2491 87.1226 35.9366 86.8101 35.9366L66.8101 24.3741C66.1851 24.0616 65.8726 24.0616 65.2476 24.0616C64.6226 24.0616 63.9976 24.0616 63.6851 24.3741L39.3101 38.4366V28.7491L59.6226 16.8741C62.7476 14.9991 66.1851 14.3741 69.9351 14.3741C73.3726 14.3741 76.8101 15.6241 79.9351 17.8116C82.7476 19.9991 85.2476 22.8116 86.4976 25.9366C87.7476 29.0616 88.0601 32.8116 87.4351 36.2491ZM34.9351 53.7491L26.4976 48.7491V25.3116C26.4976 21.8741 27.4351 18.1241 29.3101 15.3116C31.1851 12.1866 33.9976 9.99915 37.1226 8.43665C40.2476 6.87415 43.9976 6.24915 47.4351 6.87415C50.8726 7.18665 54.3101 8.74915 57.1226 10.9366C57.1226 10.9366 56.8101 11.2491 56.4976 11.2491L36.4976 22.8116C35.8726 23.1241 35.5601 23.4366 35.2476 24.0616C34.9351 24.6866 34.9351 24.9991 34.9351 25.6241V53.7491ZM39.3101 43.7491L50.2476 37.4991L61.1851 43.7491V56.2491L50.2476 62.4991L39.3101 56.2491V43.7491Z" fill="#193718"/>
</g>
</g>
</svg>
