<svg width="100" height="100" viewBox="0 0 100 100" fill="none" xmlns="http://www.w3.org/2000/svg">
<g clip-path="url(#clip0_26_139)">
<path d="M55.2871 72.1599C55.2871 66.2505 55.2871 63.2958 56.437 61.0386C57.4484 59.0534 59.0629 57.4392 61.0481 56.4275C63.3053 55.2776 66.2596 55.2776 72.169 55.2776H83.1175C89.0269 55.2776 91.9816 55.2776 94.2384 56.4275C96.2241 57.4392 97.8382 59.0534 98.8495 61.0386C99.9999 63.2958 99.9999 66.2505 99.9999 72.1599V83.108C99.9999 89.0174 99.9999 91.9721 98.8495 94.2293C97.8382 96.2145 96.2241 97.8287 94.2384 98.8404C91.9816 99.9903 89.0269 99.9903 83.1175 99.9903H72.169C66.2596 99.9903 63.3053 99.9903 61.0481 98.8404C59.0629 97.8287 57.4484 96.2145 56.437 94.2293C55.2871 91.9721 55.2871 89.0174 55.2871 83.108V72.1599Z" fill="#386AF5"/>
<path d="M0 77.634C0 65.2867 10.0093 55.2776 22.3564 55.2776C34.7035 55.2776 44.7127 65.2867 44.7127 77.634C44.7127 89.9812 34.7035 99.9903 22.3564 99.9903C10.0093 99.9903 0 89.9812 0 77.634Z" fill="#F53878"/>
<path d="M0 16.8824C0 10.973 2.42281e-07 8.01826 1.15003 5.76116C2.16163 3.77579 3.77576 2.16166 5.76117 1.15005C8.01823 1.57482e-06 10.9729 0 16.8822 0H83.1177C89.0271 0 91.9818 1.57482e-06 94.2386 1.15005C96.2242 2.16166 97.8383 3.77579 98.8497 5.76116C100 8.01826 100 10.973 100 16.8824V27.8305C100 33.7399 100 36.6946 98.8497 38.9518C97.8383 40.937 96.2242 42.5511 94.2386 43.5629C91.9818 44.7128 89.0271 44.7128 83.1177 44.7128H16.8822C10.9729 44.7128 8.01823 44.7128 5.76117 43.5629C3.77576 42.5511 2.16163 40.937 1.15003 38.9518C2.42281e-07 36.6946 0 33.7399 0 27.8305V16.8824Z" fill="#FCB500"/>
</g>
<defs>
<clipPath id="clip0_26_139">
<rect width="100" height="100" fill="white"/>
</clipPath>
</defs>
</svg>
